<svg width="100" height="100" fill="none" xmlns="http://www.w3.org/2000/svg"><circle cx="50" cy="50" r="49" stroke="#136470" stroke-width="2"/><path fill-rule="evenodd" clip-rule="evenodd" d="M32.006 42c10.327 2.806 20.887 14.35 18.705 27.95-5.033.402-9.308-1.62-12.847-5.013-6.52-6.255-8.206-14.023-5.858-22.937Zm9.335 16.413 3.222 4.312c.957-2.481 1.749-4.545 2.589-6.73-1.047-1.462-2.093-2.933-3.36-4.7-.895 2.608-1.625 4.715-2.45 7.118Zm-.64-1.47c.77-2.53 1.397-4.587 2.086-6.842-1.377-1.18-2.692-2.312-3.972-3.407-2.713 4.092-.331 6.913 1.886 10.249Zm-6.072.262-.365.353c1.39 2.128 2.788 4.255 4.103 6.27l5.219-.474c-1.426-1.873-2.623-3.456-3.739-4.927-1.845-.43-3.532-.827-5.218-1.222Zm9.83 7.11c-1.713.022-3.207.043-4.701.064 2.816 2.806 5.948 4.503 9.741 4.651-1.659-1.555-3.325-3.11-5.04-4.715Zm-5.748-6.94c.083-.15.172-.305.255-.453-1.831-2.29-2.286-5.86-6.306-6.496.35 1.774.674 3.414 1.012 5.146 1.803.643 3.421 1.222 5.04 1.802Zm6.92 6.446c1.37 1.286 2.636 2.467 3.978 3.725.352-3.534-.468-7.267-1.982-9.013-.654 1.725-1.28 3.393-1.997 5.288ZM35.29 44.545c-.152.077-.296.148-.448.226.448 1.272.888 2.545 1.336 3.824.151-.021.31-.035.461-.057.22-.911.447-1.816.675-2.756-.778-.474-1.405-.856-2.024-1.237Zm-1.86 2.262-.46.084c-.056.65-.117 1.301-.186 2.086.605.367 1.156.707 2.168 1.329-.42-1.103-.605-1.654-.84-2.185-.192-.46-.454-.883-.681-1.314Z" fill="#136470"/><path fill-rule="evenodd" clip-rule="evenodd" d="M48.642 29c4.855 5.582 6.585 16.181.276 23-3.027-1.726-4.716-4.52-5.475-7.804-1.392-6.05.538-11.08 5.2-15.196Zm-.779 12.87c.076 1.16.145 2.305.235 3.681 1.468-1.027 2.689-1.886 3.985-2.794-.055-1.23-.103-2.46-.165-3.955-1.49 1.125-2.69 2.033-4.055 3.067Zm.18-1.077c1.386-1.124 2.51-2.04 3.737-3.046a824.87 824.87 0 0 0-1-3.458c-3.068 1.25-2.758 3.766-2.738 6.504Zm-3.565-2.207-.338.063c0 1.74.007 3.479.007 5.12 1.13.63 2.068 1.154 3.158 1.754-.117-1.607-.207-2.962-.297-4.227-.896-.957-1.71-1.83-2.53-2.71Zm2.965 7.818c-.986-.65-1.848-1.216-2.71-1.789.558 2.669 1.717 4.842 3.827 6.4-.366-1.516-.731-3.04-1.117-4.611Zm-.697-6.142c.104-.048.207-.104.317-.153-.193-1.998.876-4.192-1.179-6.107-.462 1.14-.89 2.187-1.337 3.291.786 1.07 1.496 2.02 2.2 2.97Zm1.552 6.316c.303 1.258.586 2.41.882 3.64 1.517-1.858 2.441-4.275 2.227-5.847-1.013.726-1.992 1.418-3.11 2.207Zm1.275-14.867-.338-.042c-.22.887-.44 1.781-.661 2.669.096.049.193.098.282.146.47-.426.931-.852 1.414-1.292l-.697-1.481Zm-1.91.552c-.096-.042-.193-.084-.29-.133-.275.342-.55.685-.882 1.104.207.447.4.852.745 1.586.172-.783.269-1.167.338-1.558.048-.328.062-.664.09-1Z" fill="#136470"/><path fill-rule="evenodd" clip-rule="evenodd" d="M67.008 34c4.635 11.101 1.46 28.113-12.468 35-3.876-4.264-5.004-9.418-4.377-14.813 1.156-9.92 7.074-16.489 16.845-20.187Zm-8.474 19.077c-.53 1.803-1.054 3.57-1.688 5.706 2.933-.757 5.365-1.393 7.944-2.058.612-1.895 1.216-3.79 1.953-6.08-3.014.89-5.446 1.612-8.21 2.432Zm.891-1.535c2.845-.954 5.159-1.725 7.694-2.573.118-2.008.228-3.925.339-5.791-5.608.226-6.53 4.207-8.033 8.364Zm-4.465-5.281c-.192-.029-.383-.064-.575-.092-.973 2.637-1.945 5.274-2.86 7.763 1.453 1.57 2.661 2.871 4.061 4.384.722-2.503 1.327-4.603 1.894-6.562-.892-1.944-1.702-3.719-2.52-5.493Zm.36 13.462c-1.215-1.527-2.269-2.856-3.33-4.186-.597 4.356.037 8.273 2.535 11.78.265-2.503.523-5.006.796-7.594Zm2.33-9.687c.198-.02.39-.042.589-.063.81-3.133 3.75-5.869 1.533-9.892-1.378 1.47-2.646 2.828-3.987 4.256.67 2.037 1.268 3.868 1.865 5.7Zm-1.062 10.416c-.213 2.071-.412 3.973-.626 6.002 3.47-1.986 6.3-5.154 6.838-7.65-2.026.537-3.986 1.06-6.212 1.648ZM66.971 38.61c-.177-.085-.346-.17-.523-.254-.855 1.23-1.702 2.46-2.557 3.69l.376.382c.987-.389 1.967-.785 2.984-1.188-.11-1.018-.191-1.824-.28-2.63Zm-3.36-.205-.398-.36c-.634.374-1.267.742-2.026 1.187.08.785.162 1.506.302 2.815.715-1.096 1.09-1.62 1.407-2.171.273-.467.48-.976.715-1.47Z" fill="#136470"/><path d="M25.923 34.605a5.806 5.806 0 0 1-1.653 1.575 5.42 5.42 0 0 1-1.959.746 5.308 5.308 0 0 1-2.066-.06 5.33 5.33 0 0 1-1.944-.859l-.022-.015a5.278 5.278 0 0 1-1.47-1.523 5.142 5.142 0 0 1-.734-1.914 5.39 5.39 0 0 1 .06-2.095c.154-.716.475-1.402.95-2.065a5.805 5.805 0 0 1 1.653-1.575 5.421 5.421 0 0 1 1.959-.746 5.265 5.265 0 0 1 2.058.06 5.33 5.33 0 0 1 1.944.859l.022.015a5.278 5.278 0 0 1 1.47 1.523c.375.595.62 1.228.734 1.914.115.678.1 1.38-.06 2.095-.146.716-.46 1.402-.942 2.065Zm-1.362-.987c.306-.422.505-.867.597-1.334.091-.467.1-.92.007-1.364a3.45 3.45 0 0 0-.535-1.259 3.784 3.784 0 0 0-1.026-1.033l-.023-.015a4.01 4.01 0 0 0-1.331-.61 3.679 3.679 0 0 0-1.4-.075c-.46.067-.896.218-1.317.467-.42.241-.78.58-1.086 1.002a3.363 3.363 0 0 0-.597 1.334c-.092.467-.1.92-.008 1.364.092.445.268.867.536 1.259.268.4.605.739 1.025 1.033l.023.015c.414.286.865.49 1.332.61.474.113.941.143 1.4.075.46-.067.895-.218 1.316-.467.421-.241.78-.58 1.087-1.002ZM24 20.536l3.8-2.637c.533-.374 1.06-.629 1.58-.764.519-.134 1.001-.172 1.461-.097.386.075.742.225 1.076.45.334.224.623.516.876.89l.015.023c.237.345.4.697.482 1.041.089.352.111.69.082 1.027a3.378 3.378 0 0 1-.267.988c-.149.322-.342.63-.587.914L37 23.981l-1.766 1.229-4.11-1.498-.023.015-1.862 1.288 2.01 2.951L29.758 29 24 20.536Zm6.544 1.64c.542-.374.883-.794 1.024-1.273.141-.472.067-.929-.23-1.37l-.014-.023c-.312-.465-.705-.704-1.18-.727-.475-.022-.987.158-1.551.547l-2.196 1.52 1.944 2.854 2.203-1.528ZM43.05 22.772a6.348 6.348 0 0 1-2.34.192 5.31 5.31 0 0 1-2.013-.652 5.12 5.12 0 0 1-1.547-1.365 5.577 5.577 0 0 1-.948-1.963l-.008-.03a5.308 5.308 0 0 1-.148-2.124 5.253 5.253 0 0 1 .669-1.97 5.61 5.61 0 0 1 1.407-1.596 5.77 5.77 0 0 1 2.06-.996c.459-.123.886-.2 1.275-.238a6.012 6.012 0 0 1 1.112-.008c.35.03.692.092 1.018.192.334.092.661.214.987.368l-.8 1.656a6.693 6.693 0 0 0-.739-.291 4.27 4.27 0 0 0-.754-.169 4.1 4.1 0 0 0-.816-.015 4.796 4.796 0 0 0-.925.16c-.482.131-.902.346-1.26.645-.357.306-.653.66-.863 1.066a3.83 3.83 0 0 0-.412 1.334c-.054.483-.015.966.117 1.449l.008.03c.14.522.357.99.645 1.388.288.399.638.721 1.034.959.397.237.84.39 1.322.46.482.069.995.03 1.531-.108.498-.13.94-.322 1.337-.582.397-.253.723-.545.972-.86l-.52-1.908-2.683.705-.389-1.556 4.463-1.181L47 20.027c-.202.284-.435.56-.692.836a6.55 6.55 0 0 1-.878.774c-.327.238-.684.46-1.08.652-.413.207-.84.36-1.3.483ZM52.578 11l1.403.16L57 22l-1.602-.174-.69-2.599-4.08-.454-1.075 2.401L48 21l4.578-10Zm1.695 6.553-1.18-4.303-1.789 3.977 2.97.326ZM63.218 13l1.448.723 1.86 8.691 2.919-6.308 1.555.775L66.782 26l-1.313-.657-1.91-8.934-3.004 6.492L59 22.127 63.218 13ZM74.607 20 76 21.163 69.393 29 68 27.837 74.607 20ZM74.08 34.613a5.64 5.64 0 0 1-.933-1.984 5.526 5.526 0 0 1-.09-2.052 5.38 5.38 0 0 1 2.154-3.497l.022-.015a5.402 5.402 0 0 1 1.926-.912 5.173 5.173 0 0 1 2.047-.09 5.39 5.39 0 0 1 1.957.714c.621.372 1.167.881 1.645 1.535.288.395.516.775.682 1.14.175.373.296.73.38 1.087.083.357.121.707.129 1.049.007.342-.016.692-.053 1.034l-1.798-.167c.061-.57.053-1.118-.038-1.642-.09-.525-.31-1.026-.667-1.52a3.258 3.258 0 0 0-1.061-.958 3.5 3.5 0 0 0-1.29-.434 3.518 3.518 0 0 0-1.372.107c-.463.13-.895.334-1.304.638l-.023.016c-.41.296-.743.653-1.008 1.056-.266.403-.44.836-.524 1.285-.09.448-.083.912.015 1.368.099.464.296.897.592 1.3.379.524.804.897 1.274 1.132.47.228 1.008.41 1.607.525L78.091 37a7.332 7.332 0 0 1-1.122-.236 5.304 5.304 0 0 1-1.031-.433 4.798 4.798 0 0 1-.963-.692 6.77 6.77 0 0 1-.895-1.026ZM25.174 63.749l4.132 6.218-1.283.883-3.163-4.763-2.23 1.535 2.807 4.22-1.282.883-2.807-4.22-3.299 2.266-.968-1.463 8.093-5.559ZM32.889 72.863l1.304.977-2.33 10.685-1.482-1.115.592-2.534-3.783-2.837-2.223 1.31-1.44-1.079 9.362-5.407Zm-1.532 6.385.94-4.235-3.69 2.164 2.75 2.07ZM38.517 76.7l4.253 1.266c.599.181 1.104.42 1.525.724.413.304.733.652.954 1.043.178.34.285.702.32 1.085.037.384-.006.79-.127 1.202l-.007.029c-.114.39-.271.724-.478 1.006a2.8 2.8 0 0 1-.712.688c-.27.18-.57.311-.89.398-.328.087-.67.123-1.034.116l1.54 4.372-1.974-.586-1.397-4.018-.028-.007-2.08-.615-.955 3.322-1.66-.492 2.75-9.534Zm2.764 5.95c.599.18 1.119.18 1.56-.007.435-.181.727-.522.87-1.014l.007-.029c.15-.521.092-.963-.178-1.339-.271-.37-.72-.651-1.347-.84l-2.444-.73-.926 3.213 2.458.746ZM47.494 79.262l1.852-.167 3.42 4.409 2.607-4.944 1.852-.167.862 9.888-1.724.152-.62-7.094-2.721 4.945-.057.007-3.498-4.358.613 7.065-1.724.152-.862-9.888ZM59.049 77.372l1.61-.644 3.562 9.244-1.61.645-3.562-9.245ZM62.697 76.15l1.31-.963 8.272 2.381-3.968-5.552 1.403-1.035 5.742 8.035-1.182.869-8.521-2.454 4.082 5.719-1.403 1.035-5.735-8.035ZM81.711 71.234c-.42.666-.912 1.194-1.467 1.593a4.894 4.894 0 0 1-1.774.803 4.675 4.675 0 0 1-1.903.015 5.13 5.13 0 0 1-1.873-.782l-.022-.015a5.143 5.143 0 0 1-2.201-3.192 5.275 5.275 0 0 1 .748-3.981c.235-.37.477-.695.72-.963.242-.268.491-.5.755-.703.256-.195.527-.369.812-.506.285-.138.584-.26.905-.362l.491 1.665c-.235.072-.463.16-.676.26-.214.102-.42.218-.613.355a3.936 3.936 0 0 0-.563.5 4.945 4.945 0 0 0-.534.687c-.25.391-.4.804-.456 1.238a3.406 3.406 0 0 0 .627 2.476c.263.37.591.688.983.948l.021.015c.42.275.855.47 1.304.564.449.102.883.109 1.304.022.42-.087.819-.253 1.19-.507.37-.253.698-.593.975-1.035.257-.405.442-.818.549-1.245a4.05 4.05 0 0 0 .128-1.209l-1.546-1.013-1.382 2.171-1.254-.825 2.301-3.612 3.449 2.266c.035.325.057.666.05 1.02a6.466 6.466 0 0 1-.115 1.093c-.07.37-.178.746-.327 1.13-.171.383-.37.76-.606 1.129Z" fill="#136470"/><path d="M86 43c.651 2.222 1 4.57 1 7 0 2.43-.349 4.778-1 7M15 58c-.651-2.38-1-4.897-1-7.5 0-2.603.349-5.12 1-7.5" stroke="#136470" stroke-width="1.126"/></svg>