<svg width="100" height="100" fill="none" xmlns="http://www.w3.org/2000/svg"><path d="M66.86 38.343c-6.979 5.72-12.788 4.724-19.395 10.195-8.218 6.801-6.35 22.745-5.716 26.359.862-3.273 2.68-8.794 5.944-13.162 3.763-5.023 8.44-7.342 10.242-8.495 1.804-1.145 3.25-2.824 3.25-2.824s-1.111 2.241-3.955 4.148c-2.48 1.664-6.679 3.585-10.4 10.508-2.095 3.899-3.307 7.911-3.813 10.28 1.17-.86 2.566-1.8 4.733-3.4 9.794-7.236 18.183-5.336 22.06-19.395 1.918-6.958.278-16.91.278-16.91s-.89.775-3.229 2.696ZM30.816 34.192c-.633 6.35-3.906 8.726-4.477 14.763-.715 7.505 7.797 14.592 9.831 16.103-1.15-2.071-2.912-5.753-3.415-9.577-.585-4.398.558-7.888.878-9.364.32-1.475.217-3.036.217-3.036s.538 1.681.075 4.05c-.401 2.072-1.51 5.123.007 10.45.85 3 2.184 5.626 3.069 7.066.15-1.015.38-2.178.66-4.065 1.258-8.506 6.211-11.72 1.367-20.715-2.395-4.44-7.94-8.633-7.94-8.633s-.055.83-.272 2.958ZM18.102 30.373c-.765-.674-1.324-1.404-1.684-2.205a4.5 4.5 0 0 1-.347-2.515c.127-.87.545-1.713 1.266-2.521.482-.534 1.012-.949 1.607-1.237a4.535 4.535 0 0 1 1.84-.463 4.839 4.839 0 0 1 1.924.344c.651.253 1.274.64 1.861 1.152.82.716 1.38 1.475 1.691 2.283.311.8.361 1.636.17 2.514a5.202 5.202 0 0 1-1.21 2.34 5.061 5.061 0 0 1-2.222 1.481 4.445 4.445 0 0 1-2.568.078 5.655 5.655 0 0 1-2.328-1.25Zm.948-1.032c.608.534 1.231.878 1.882 1.046.651.162 1.267.162 1.847-.014.58-.175 1.11-.526 1.578-1.053.736-.829 1.026-1.721.877-2.683-.156-.963-.686-1.848-1.606-2.648-.63-.555-1.28-.928-1.939-1.117-.658-.19-1.288-.197-1.875-.035-.587.168-1.125.52-1.6 1.053-.381.429-.65.871-.799 1.32-.148.45-.184.914-.106 1.392.078.477.262.94.552 1.397.29.45.686.9 1.189 1.342ZM29.621 25.436l-5.123-8.73 3.962-2.29c.75-.436 1.31-.689 1.692-.773a2.941 2.941 0 0 1 1.04-.042c.318.056.644.19.983.407.34.218.63.534.87.942.8 1.362.425 2.64-1.117 3.835a3.3 3.3 0 0 1 1.33.112c.439.126.877.295 1.302.506l2.95 1.468-1.5.864-2.243-1.131a20.09 20.09 0 0 0-1.38-.64 3.887 3.887 0 0 0-.983-.273c-.297-.035-.538-.028-.729.02-.19.057-.445.176-.764.359l-1.373.794 2.279 3.877-1.196.695Zm-1.67-5.57 2.54-1.468c.8-.463 1.288-.927 1.465-1.39.177-.464.141-.92-.12-1.356-.552-.941-1.472-1.047-2.746-.31l-2.83 1.637 1.691 2.887ZM42.414 15.736l-.247-1.166 4.288-.892.77 3.666c-1.103 1.3-2.39 2.107-3.87 2.41-.813.168-1.556.203-2.236.112a4.21 4.21 0 0 1-1.818-.674 4.95 4.95 0 0 1-1.38-1.426 5.718 5.718 0 0 1-.814-2.002c-.318-1.503-.141-2.83.524-3.976.665-1.152 1.819-1.896 3.46-2.233 2.286-.478 3.878.218 4.77 2.072l-1.14.569c-.722-1.342-1.854-1.848-3.382-1.531-1.182.245-2.017.78-2.512 1.608-.495.829-.616 1.869-.347 3.119.297 1.398.87 2.332 1.727 2.81.856.47 1.797.603 2.83.386 1.182-.246 2.094-.794 2.738-1.637l-.389-1.84-2.972.625ZM48.167 18.658 53.156 9l1.464.147 3.206 10.48-1.557-.154-.885-3.168-4.316-.429-1.443 2.936-1.458-.154Zm3.39-3.828 3.502.35-.793-2.893c-.261-.97-.438-1.686-.523-2.156-.198.632-.446 1.25-.75 1.861l-1.437 2.838ZM58.61 19.936l3.956-9.313 1.295.54 1.89 9.426 3.113-7.325 1.217.512-3.956 9.314-1.294-.54-1.904-9.427-3.113 7.326-1.203-.513ZM68.15 24.62l5.894-8.238 1.11.787-5.894 8.239-1.11-.787ZM78.904 29.777l.673 1.236c-2.08 1.075-3.885.78-5.406-.9-1.118-1.228-1.557-2.471-1.33-3.729.233-1.264.912-2.395 2.03-3.4 1.274-1.144 2.548-1.657 3.821-1.545 1.274.113 2.37.675 3.298 1.693 1.436 1.58 1.62 3.238.552 4.98l-1.14-.772c.743-1.286.651-2.438-.283-3.456-.75-.822-1.585-1.215-2.512-1.18-.92.035-1.854.477-2.795 1.32-1.09.976-1.662 1.925-1.726 2.83-.064.914.226 1.722.863 2.417 1.097 1.208 2.413 1.377 3.956.506ZM13.142 71.689l8.335-5.81 2.244 3.176c.332.47.601.899.806 1.285.205.386.326.8.354 1.236.028.436-.057.871-.276 1.3-.212.428-.545.8-.99 1.11-1.692 1.18-3.277.716-4.77-1.391l-1.528-2.15-3.39 2.36-.785-1.116Zm5.158-1.932 1.536 2.17c.934 1.328 1.91 1.637 2.922.935.24-.169.432-.352.566-.541.135-.19.213-.4.248-.618.028-.218.007-.45-.064-.682-.078-.238-.311-.632-.7-1.18l-1.529-2.156-2.979 2.072ZM21.13 81.67l6.213-8.007 3.637 2.781c.686.527 1.14.948 1.359 1.265.219.316.36.632.431.94.071.31.064.661-.007 1.061-.078.394-.255.78-.545 1.152-.97 1.25-2.3 1.391-3.998.422.22.386.354.807.397 1.264.05.457.056.913.02 1.384l-.254 3.273-1.373-1.054.213-2.486c.05-.618.078-1.124.07-1.51 0-.387-.042-.724-.12-1.012-.078-.28-.177-.505-.297-.66-.12-.154-.333-.344-.623-.569l-1.26-.962-2.759 3.554-1.104-.836Zm4.557-3.645 2.335 1.784c.73.562 1.352.836 1.847.822a1.522 1.522 0 0 0 1.217-.619c.672-.864.418-1.742-.75-2.64l-2.597-1.988-2.052 2.64ZM33.797 84.55c.325-.962.785-1.763 1.394-2.402a4.546 4.546 0 0 1 2.193-1.3c.864-.224 1.805-.168 2.83.17a4.992 4.992 0 0 1 1.77.99c.495.435.877.934 1.146 1.503a4.72 4.72 0 0 1 .431 1.89 6.137 6.137 0 0 1-.34 2.149c-.346 1.025-.827 1.84-1.45 2.437a4.32 4.32 0 0 1-2.264 1.138 5.313 5.313 0 0 1-2.646-.19c-.906-.302-1.65-.78-2.236-1.447a4.397 4.397 0 0 1-1.076-2.318 5.515 5.515 0 0 1 .248-2.62Zm1.323.464c-.255.759-.333 1.468-.233 2.128.099.66.346 1.215.735 1.679.39.463.92.808 1.6 1.032 1.054.352 1.995.267 2.83-.245.828-.513 1.443-1.349 1.833-2.508.268-.794.36-1.531.276-2.205-.086-.675-.319-1.25-.701-1.728-.382-.47-.92-.822-1.606-1.047a3.928 3.928 0 0 0-1.536-.218c-.474.035-.92.19-1.33.443-.41.26-.771.611-1.075 1.053-.319.443-.574.977-.793 1.616ZM46.816 93l-.128-10.107 3.574-.043c.68-.006 1.28.029 1.811.113.53.084 1.04.316 1.536.681.488.372.891.906 1.21 1.602.318.695.48 1.538.488 2.535.021 1.517-.333 2.76-1.062 3.709-.728.955-1.96 1.44-3.7 1.46l-3.73.05Zm1.365-1.215 2.208-.028c.906-.014 1.606-.148 2.08-.415.482-.266.843-.702 1.09-1.32.248-.611.361-1.363.354-2.248-.007-.618-.078-1.159-.212-1.622-.135-.464-.326-.85-.58-1.166a2.412 2.412 0 0 0-.97-.717c-.39-.161-1.019-.239-1.89-.232l-2.172.029.093 7.719ZM63.586 80.118l1.295-.456 1.98 5.5c.334.92.496 1.657.49 2.205-.008.548-.114 1.026-.32 1.44a3.147 3.147 0 0 1-.933 1.089c-.418.316-.927.583-1.543.8-1.273.45-2.342.492-3.205.134-.87-.365-1.585-1.342-2.158-2.936l-1.982-5.5 1.295-.456 1.982 5.485c.276.759.523 1.279.757 1.574.233.295.488.505.764.639.276.126.587.19.927.19a3.61 3.61 0 0 0 1.11-.218c.574-.204 1.02-.45 1.338-.745.326-.295.517-.674.587-1.152.064-.47-.063-1.166-.396-2.093l-1.988-5.5ZM76.825 78.987l1.28-.597c.97 2.12.574 3.89-1.188 5.31-1.295 1.04-2.568 1.412-3.828 1.117-1.26-.295-2.363-1.033-3.311-2.192-1.083-1.32-1.536-2.613-1.352-3.87.184-1.257.807-2.318 1.875-3.175 1.663-1.341 3.347-1.433 5.038-.28l-.842 1.088c-1.252-.808-2.413-.773-3.488.091-.87.703-1.31 1.51-1.323 2.423-.015.92.382 1.862 1.181 2.845.927 1.131 1.847 1.756 2.76 1.861.913.113 1.74-.133 2.477-.723 1.28-1.026 1.514-2.325.721-3.898ZM84.75 74.906l-7.522-4.867-1.868 2.844-1.004-.653 4.479-6.82 1.004.653-1.868 2.845 7.522 4.867-.743 1.131Z" fill="#136470"/><path d="M79.63 50.352c0 16.242-13.268 29.412-29.63 29.412s-29.63-13.17-29.63-29.412C20.37 34.11 33.639 20.94 50 20.94s29.63 13.17 29.63 29.412Z" stroke="#136470" stroke-width="1.126" stroke-miterlimit="10"/><path d="m86.215 39.617-.651 1.433-1.557.281 1.174 1.054-.212 1.56 1.373-.78 1.422.68-.318-1.537 1.09-1.131L86.963 41l-.75-1.383ZM85.684 49.205l.743 1.384-.729 1.398 1.564-.281 1.11 1.117.213-1.553L90 50.568l-1.422-.688-.233-1.553-1.104 1.131-1.557-.253ZM87.432 57.205l-1.33.857-1.465-.604.41 1.517-1.033 1.194 1.585.085.821 1.341.573-1.468 1.536-.365-1.224-.99.127-1.567ZM13.793 61.596l.644-1.433 1.557-.281-1.168-1.054.213-1.56-1.373.78-1.43-.68.326 1.538-1.097 1.13 1.578.176.75 1.384ZM14.324 52.008l-.743-1.384.722-1.398-1.557.281-1.111-1.123-.22 1.559-1.414.702 1.422.688.24 1.553 1.097-1.131 1.564.253ZM12.577 44.008l1.33-.858 1.458.605-.403-1.518 1.026-1.194-1.578-.084-.828-1.342-.566 1.469-1.543.365 1.231.99-.127 1.566Z" fill="#136470"/><circle cx="50" cy="50" r="49" stroke="#136470" stroke-width="2"/></svg>