<svg width="88" height="88" fill="none" xmlns="http://www.w3.org/2000/svg"><path fill-rule="evenodd" clip-rule="evenodd" d="M44 85.8c23.085 0 41.8-18.715 41.8-41.8C85.8 20.915 67.085 2.2 44 2.2 20.915 2.2 2.2 20.915 2.2 44c0 23.085 18.715 41.8 41.8 41.8Zm0 2.2c24.3 0 44-19.7 44-44S68.3 0 44 0 0 19.7 0 44s19.7 44 44 44Z" fill="#fff"/><path fill-rule="evenodd" clip-rule="evenodd" d="M44 70.902c14.858 0 26.902-12.044 26.902-26.902S58.858 17.098 44 17.098 17.098 29.142 17.098 44 29.142 70.902 44 70.902ZM44 72c15.464 0 28-12.536 28-28S59.464 16 44 16 16 28.536 16 44s12.536 28 28 28Z" fill="#fff"/><path fill-rule="evenodd" clip-rule="evenodd" d="m13.32 27.51.72-1.405 2.64 1.404c.08.496.08 1.032 0 1.569-.08.537-.28 1.073-.52 1.569-.36.702-.8 1.238-1.36 1.651-.56.413-1.16.62-1.84.66a3.357 3.357 0 0 1-1.96-.453A3.522 3.522 0 0 1 9.52 31.1c-.36-.578-.52-1.239-.52-1.94 0-.702.16-1.404.52-2.106.2-.578.56-1.073 1-1.445.44-.372.92-.62 1.44-.743l.4 1.445c-.72.206-1.24.66-1.6 1.321-.2.413-.32.867-.32 1.28 0 .413.12.825.36 1.156.2.371.52.66.92.867.4.206.8.33 1.2.289.4 0 .76-.124 1.12-.372.32-.248.6-.578.84-.99.24-.455.32-.909.32-1.363l-1.88-.99Zm-.4-5.905 5.44 4.996 3.56-4.128-1.04-.95-2.44 2.807-4.4-4.046-1.12 1.322Zm12.28-1.65c-.84.618-1.64.907-2.48.784-.8-.124-1.52-.62-2.16-1.528l-2.44-3.385 1.36-1.032 2.4 3.344c.76 1.073 1.6 1.28 2.48.619.44-.33.64-.702.68-1.115.04-.413-.16-.908-.56-1.486l-2.4-3.344 1.32-1.032 2.44 3.385c.64.867.88 1.734.76 2.56-.12.867-.6 1.61-1.4 2.23Zm3.08-9.042 2.32 5.614 1.56-.66-2.32-5.615 2.12-.95-.52-1.32-5.84 2.56.52 1.32 2.16-.95ZM40.4 12.15l.28 1.363-5.52 1.238-1.52-7.348L39 6.206l.28 1.363-3.76.826.32 1.61 3.32-.744.28 1.322-3.32.743.4 1.692 3.88-.867Zm8.64-5.862-.28 7.514-1.4-.042-3.44-4.747-.16 4.541-1.68-.082L42.36 6l1.4.041 3.44 4.707.16-4.542 1.68.083Zm8 3.716-.72 1.857 3.12 1.28-.52 1.28-3.12-1.28-1 2.56-1.56-.66L56 8.063l5.12 2.106-.52 1.28-3.56-1.445Zm6.12 10.527 1.48 1.073.04-2.93c.52.123 1 .082 1.44-.083.44-.165.8-.496 1.12-.95.32-.454.48-.908.52-1.404.04-.495-.08-.949-.36-1.444-.28-.455-.64-.909-1.16-1.28l-2.56-1.9-4.24 6.11 1.36 1.033 1.2-1.693 1.2.867.08.041-.12 2.56Zm2.68-3.922c-.24.33-.52.537-.88.537-.36.041-.72-.124-1.12-.413l-1.12-.826 1.48-2.146 1.12.825c.4.29.68.62.76.95.08.412 0 .743-.24 1.073Zm4.44 9.29-1 .949-3.76-4.335 5.44-4.996 3.68 4.253-1 .95-2.56-2.932-1.16 1.073 2.24 2.601-.96.909-2.28-2.684-1.24 1.156 2.6 3.055Zm3.68 6.48L72 28.83l1.48-.867 1.68 3.014 1.12-.66-1.68-3.014 1.36-.826 1.88 3.427 1.16-.702-2.72-4.954-6.32 3.715L72.76 33l1.2-.62ZM14.669 62.088l.758 1.322-2.554 1.483a5.03 5.03 0 0 1-1.277-.842c-.399-.36-.718-.801-.997-1.242A4.648 4.648 0 0 1 10 60.806c0-.681.12-1.322.479-1.883.32-.6.798-1.042 1.437-1.402A3.836 3.836 0 0 1 13.83 57c.678 0 1.277.2 1.876.56.598.361 1.077.882 1.436 1.563.32.561.519 1.122.599 1.683.08.561 0 1.082-.16 1.603l-1.397-.441c.2-.721.16-1.402-.239-2.043-.24-.401-.519-.721-.878-.922-.36-.2-.718-.32-1.117-.32-.4 0-.798.12-1.197.36-.4.24-.679.521-.878.882-.2.36-.32.72-.32 1.122 0 .4.12.8.36 1.201.239.441.558.762.917 1.002l1.836-1.162Zm4.15.32-5.108 5.169 3.791 3.766.958-.962-2.594-2.564 4.15-4.206-1.197-1.202Zm2.634 12.42c-.838-.6-1.357-1.282-1.516-2.083-.16-.801.08-1.642.678-2.524l2.315-3.365 1.396.961-2.274 3.326c-.719 1.081-.679 1.923.24 2.524.438.28.837.4 1.276.28.4-.12.798-.44 1.197-1.002l2.275-3.325 1.357.962-2.315 3.365c-.598.882-1.317 1.402-2.115 1.523-.798.16-1.636-.08-2.514-.641Zm8.939-1.762-2.394 5.408 1.556.681 2.394-5.408 2.115.961.56-1.242-5.787-2.564-.559 1.242 2.115.922Zm9.059 7.291-.24 1.323-5.547-.962 1.237-7.172 5.428.922-.24 1.322-3.751-.641-.28 1.563 3.313.56-.24 1.282-3.312-.56-.28 1.682 3.912.681Zm8.7-5.849.239 7.292-1.397.04-3.751-4.287.16 4.407-1.677.04-.24-7.292 1.398-.04 3.75 4.287-.159-4.407 1.676-.04Zm6.903-.48.758 1.762 3.073-1.322.519 1.242-3.073 1.322 1.037 2.444-1.556.681-2.873-6.69 5.028-2.164.519 1.242-3.432 1.482Zm11.732.28 1.517-1.002-2.634-1.042c.28-.44.439-.881.439-1.362 0-.48-.16-.921-.439-1.402a2.728 2.728 0 0 0-1.078-.962c-.438-.2-.917-.24-1.436-.16-.519.08-1.038.32-1.556.641l-2.634 1.763 4.03 6.09 1.397-.922-1.117-1.682 1.237-.802.08-.04 2.194.882Zm-2.554-3.847c.24.321.28.682.2 1.002-.08.32-.36.641-.758.922l-1.158.76-1.396-2.123 1.157-.76c.439-.281.798-.401 1.157-.361.28.04.559.2.798.56Zm8.58-3.886.998.922-3.751 4.207-5.427-4.848 3.67-4.127.998.922-2.553 2.844 1.157 1.042 2.234-2.524.958.881-2.234 2.524 1.237 1.122 2.713-2.965Zm4.11-6.69-1.915 3.485-1.477-.801 1.637-2.965-1.158-.64-1.636 2.964-1.397-.761 1.836-3.366-1.197-.64-2.674 4.807 6.345 3.526L78 60.566l-1.078-.681Z" fill="#fff"/><path d="M52.988 23.356c-.59 0-1.068.444-1.068.992v5.039c-1.703.194-5.08.887-7.48 3.282V22.364c0-.549-.478-.992-1.069-.992-.59 0-1.068.443-1.068.992v10.305c-2.401-2.395-5.778-3.088-7.48-3.282v-5.039c0-.548-.478-.992-1.069-.992-.59 0-1.069.444-1.069.992v28.773c0 5.13 4.233 9.315 9.618 9.821v2.43c0 .548.478.992 1.068.992.59 0 1.069-.444 1.069-.992v-2.43c5.384-.506 9.617-4.69 9.617-9.821V24.348c0-.548-.478-.992-1.069-.992ZM42.303 60.958c-4.206-.495-7.48-3.8-7.48-7.837v-1.904c1.951.237 6.007 1.2 7.48 5.068v4.673Zm0-8.446c-2.401-2.395-5.778-3.087-7.48-3.282v-7.934c1.951.237 6.007 1.199 7.48 5.067v6.149Zm0-9.922c-2.401-2.394-5.778-3.087-7.48-3.281v-7.935c1.951.237 6.007 1.2 7.48 5.068v6.148Zm9.617 10.53c0 4.038-3.275 7.343-7.48 7.838v-4.673c1.473-3.868 5.528-4.83 7.48-5.068v1.904Zm0-3.89c-1.703.195-5.08.887-7.48 3.282v-6.149c1.473-3.868 5.528-4.83 7.48-5.068v7.935Zm0-9.921c-1.703.194-5.08.887-7.48 3.281v-6.148c1.473-3.869 5.528-4.831 7.48-5.068v7.935Z" fill="#fff"/><path fill-rule="evenodd" clip-rule="evenodd" d="M35.2 49.937 23.406 61.73l-1.555-1.555L33.644 48.38l1.556 1.556ZM62.102 23.035l-8.865 8.864-1.555-1.555 8.864-8.865 1.556 1.556Z" fill="#fff"/></svg>