<svg width="88" height="88" fill="none" xmlns="http://www.w3.org/2000/svg"><path fill-rule="evenodd" clip-rule="evenodd" d="m19.692 21.003.997-1.134 2.233 1.877c-.04.47-.16.978-.359 1.448-.2.508-.478.938-.837 1.33-.479.547-1.037.977-1.675 1.212a4.151 4.151 0 0 1-1.953.235 3.946 3.946 0 0 1-1.795-.822c-.518-.508-.917-1.056-1.116-1.682a3.891 3.891 0 0 1-.12-1.916c.16-.665.479-1.291.957-1.839.399-.47.877-.86 1.356-1.095.478-.235.997-.391 1.555-.391l.08 1.447c-.758.04-1.356.352-1.835.9-.279.352-.478.704-.558 1.095-.08.391-.04.782.08 1.134.16.392.399.704.718.978.358.274.717.47 1.116.548.399.078.797.039 1.156-.117a2.3 2.3 0 0 0 .997-.744c.32-.352.518-.743.598-1.173l-1.595-1.29Zm10.486-3.481 1.316-.821-3.947-5.985-1.156.743.199 5.124-4.705-2.268-1.156.743 3.907 5.984 1.316-.821-2.312-3.52 3.668 1.76.638-.391-.12-4.108 2.352 3.56Zm6.38-2.269c-.718.196-1.436.235-2.074.078-.677-.156-1.236-.43-1.714-.9a3.307 3.307 0 0 1-.997-1.681c-.2-.665-.2-1.33-.04-1.956.16-.626.519-1.173.997-1.643.439-.47 1.077-.782 1.794-.978.718-.195 1.436-.234 2.074-.078.678.157 1.236.43 1.714.9.479.43.837 1.017 1.037 1.682.2.665.2 1.33.04 1.956-.16.625-.519 1.173-.997 1.642a4.84 4.84 0 0 1-1.834.978Zm-.399-1.369a2.46 2.46 0 0 0 1.037-.587c.279-.273.478-.625.558-.977.08-.392.08-.783-.04-1.213a2.312 2.312 0 0 0-.598-1.056 2.093 2.093 0 0 0-.997-.548 2.479 2.479 0 0 0-1.196.04 2.46 2.46 0 0 0-1.037.586c-.279.274-.478.626-.558.978-.08.391-.08.782.04 1.213.12.43.32.782.598 1.056.28.274.638.47.997.547.399.118.797.079 1.196-.039Zm10.765-5.398-.2 1.878 3.35.352-.16 1.33-3.349-.352-.279 2.581-1.674-.156L45.369 7l5.463.548-.16 1.33-3.748-.392Zm8.612 7.98-.598-2.347-.08-.04-1.355-.508-.718 1.878-1.594-.587 2.511-6.689 2.95 1.057c.599.234 1.077.508 1.476.86.359.352.598.743.718 1.213.12.43.08.938-.12 1.408-.2.508-.478.9-.837 1.134-.359.274-.837.43-1.356.47l.718 2.698-1.715-.547Zm1.595-4.264c.16-.39.12-.704-.04-.978-.16-.273-.478-.508-.956-.704l-1.276-.469-.878 2.347 1.276.47c.479.156.878.195 1.197.077a1.57 1.57 0 0 0 .677-.743Zm6.54 7.51-3.27-2.19.957-1.37 2.79 1.878.718-1.056-2.79-1.877.877-1.291 3.15 2.112.757-1.095-4.545-3.012-4.067 5.867 4.625 3.09.797-1.056Zm5.023 5.203-.997.9-3.748-4.108 5.383-4.772L73 20.925l-.997.9-2.552-2.778-1.156 1.017 2.233 2.465-.957.86-2.233-2.464-1.236 1.095 2.592 2.895ZM21.938 68.71l1.069 1.072-2.098 1.952a4.23 4.23 0 0 1-1.425-.497 7.542 7.542 0 0 1-1.267-.92c-.514-.535-.87-1.11-1.069-1.722a3.038 3.038 0 0 1 0-1.876c.159-.613.515-1.15 1.03-1.647.514-.46 1.108-.804 1.741-.919a3.364 3.364 0 0 1 1.94.115c.633.192 1.227.574 1.741 1.11.436.46.752.92.95 1.417.198.498.277.995.238 1.532l-1.465-.077c.04-.728-.198-1.34-.712-1.838-.317-.306-.673-.536-1.069-.65a2.347 2.347 0 0 0-1.148-.039c-.396.076-.752.306-1.068.613-.317.306-.555.65-.673.995a1.773 1.773 0 0 0 0 1.11c.118.383.316.728.633 1.034a2.44 2.44 0 0 0 1.108.69l1.544-1.456Zm6.135 8.5 1.346.765 3.642-6.011-1.188-.65-4.552 2.45-.079-5.093-1.187-.689-3.642 6.05 1.346.765 2.137-3.522.08 3.944.633.382 3.641-1.952-2.177 3.56Zm7.402 2.756c-.712-.191-1.346-.497-1.86-.919a3.432 3.432 0 0 1-1.03-1.57c-.197-.612-.197-1.263-.039-1.914.159-.65.515-1.225.95-1.685a3.498 3.498 0 0 1 1.702-.918 4.338 4.338 0 0 1 2.098.038c.713.191 1.346.498 1.821.919.515.46.831.957 1.03 1.57.197.612.197 1.263.039 1.914-.159.65-.515 1.225-.95 1.685-.475.459-1.03.765-1.702.918-.634.154-1.346.115-2.059-.038Zm.357-1.34c.395.115.791.115 1.187 0s.713-.306.99-.574c.277-.268.475-.613.593-1.034a2.02 2.02 0 0 0 0-1.187 2.204 2.204 0 0 0-.593-.957 2.04 2.04 0 0 0-1.03-.536 2.09 2.09 0 0 0-1.187 0 2.256 2.256 0 0 0-1.583 1.608 2.02 2.02 0 0 0 0 1.187c.118.383.316.69.593.957.278.268.594.421 1.03.536Zm11.756-3.407.158 1.837 3.325-.268.119 1.302-3.325.268.198 2.527L46.4 81l-.593-6.93 5.422-.421.12 1.301-3.761.269Zm10.846 3.33-1.98-1.378-.079.038-1.346.46.673 1.838-1.583.536-2.454-6.547 2.929-1.034c.594-.192 1.148-.307 1.662-.268.515.038.95.191 1.346.46.357.267.634.65.832 1.148.197.497.237.957.118 1.378a2.67 2.67 0 0 1-.712 1.187l2.295 1.57-1.701.613Zm-1.584-4.135c-.119-.383-.356-.612-.673-.727-.316-.115-.712-.077-1.187.076l-1.267.46.87 2.297 1.268-.46c.475-.152.791-.382.95-.688.158-.307.158-.613.04-.958Zm9.5-1.34-3.364 1.953-.871-1.378 2.89-1.647-.674-1.072-2.89 1.647-.79-1.302 3.245-1.876-.673-1.11-4.67 2.68 3.68 5.972 4.79-2.756-.673-1.11Zm5.7-5.092.95.919-3.958 3.79-5.067-4.977L67.855 64l.95.919-2.692 2.565 1.108 1.072 2.375-2.259.91.88-2.375 2.26 1.188 1.149 2.731-2.604Z" fill="#fff"/><g clip-path="url(#a)" fill="#fff"><path d="M50.323 49.761c-3.302 1.194-6.183 1.686-8.501 1.335l7.447-7.447c.421-.421.421-.983 0-1.405-.422-.421-.984-.421-1.405 0l-8.15 8.15c-.632-.352-1.194-.633-1.686-1.125-2.178-2.177-2.037-5.69-1.616-8.22.14-.561-.21-1.053-.772-1.194-.562-.14-1.054.211-1.195.773-.772 4.426 0 7.869 2.178 10.046 2.95 2.951 8.08 3.302 14.402.914 3.794-1.405 7.096-1.757 9.625-1.054l-7.868 7.868c-.422.422-.422.984 0 1.405.421.422.983.422 1.405 0l8.36-8.36c.28.14.562.422.772.632l.703.703c.421.421.983.421 1.405 0 .421-.422.421-.984 0-1.405l-.703-.703c-2.95-2.95-8.079-3.301-14.401-.913Z"/><path d="M49.69 53.906c-.562-.14-1.054.21-1.194.773-.773 4.426 0 7.868 2.177 10.046l.703.703c.422.421.983.42 1.405 0 .422-.422.422-.984 0-1.406l-.703-.702c-2.177-2.178-2.037-5.69-1.615-8.22.14-.562-.211-1.054-.773-1.194ZM36.272 35.71c-3.794 1.405-7.096 1.757-9.625 1.054l7.869-7.868c.421-.422.421-.984 0-1.405-.422-.422-.984-.422-1.405 0l-8.36 8.36c-.282-.14-.563-.422-.773-.632l-.703-.703c-.421-.422-.983-.422-1.405 0-.422.422-.422.983 0 1.405l.703.703c2.95 2.95 8.079 3.301 14.401.913 3.302-1.194 6.183-1.686 8.501-1.335l-7.447 7.447c-.421.421-.421.983 0 1.405.422.421.984.421 1.405 0l8.15-8.15c.632.352 1.194.633 1.686 1.124 2.178 2.178 2.107 5.761 1.616 8.36-.141.563.21 1.055.772 1.195.352.07.633-.07.843-.281.14-.14.211-.351.281-.562.843-4.356.14-7.868-2.107-10.117-2.95-2.95-8.08-3.301-14.402-.913Z"/><path d="M34.515 21.87c-.421.422-.421.984 0 1.405l.703.703c2.178 2.178 2.107 5.76 1.616 8.36-.14.562.21 1.054.772 1.194.352.07.633-.07.843-.28.141-.141.211-.352.282-.563.843-4.355.14-7.868-2.108-10.116l-.703-.703c-.421-.421-.983-.421-1.405 0Z"/></g><circle cx="44" cy="44" r="43" stroke="#fff" stroke-width="2"/><circle cx="44" cy="44" r="25.5" stroke="#fff"/><path fill-rule="evenodd" clip-rule="evenodd" d="m35.362 53.556-8.806 8.806L25 60.806 33.807 52l1.555 1.556ZM62.252 26.856l-8.865 8.864-1.556-1.555 8.865-8.865 1.556 1.556Z" fill="#fff"/><defs><clipPath id="a"><path fill="#fff" transform="rotate(-45 59.057 6.45)" d="M0 0h43.715v43.715H0z"/></clipPath></defs></svg>