<svg width="88" height="88" fill="none" xmlns="http://www.w3.org/2000/svg"><path fill-rule="evenodd" clip-rule="evenodd" d="M44 85.8c23.085 0 41.8-18.715 41.8-41.8C85.8 20.915 67.085 2.2 44 2.2 20.915 2.2 2.2 20.915 2.2 44c0 23.085 18.715 41.8 41.8 41.8Zm0 2.2c24.3 0 44-19.7 44-44S68.3 0 44 0 0 19.7 0 44s19.7 44 44 44Z" fill="#fff"/><path fill-rule="evenodd" clip-rule="evenodd" d="M44 80.914c20.387 0 36.914-16.527 36.914-36.914S64.387 7.086 44 7.086 7.086 23.613 7.086 44 23.613 80.914 44 80.914ZM44 82c20.987 0 38-17.013 38-38S64.987 6 44 6 6 23.013 6 44s17.013 38 38 38Z" fill="#fff"/><path d="M45.6 33.11c2.618-2.694 2.303-7.097 2.303-7.097s-4.29-.33-6.908 2.366c-2.618 2.695-2.303 7.098-2.303 7.098s4.29.329 6.908-2.366ZM24.61 50.276l-1.304 1.687v4.806H20V39.948h3.306v7.336l1.045-1.814 3.047-5.522h4.048l-4.688 7.394 4.767 9.427H27.6l-2.991-6.493ZM41.206 49.49h-5.15v4.46h6.094v2.819h-9.4V39.948h9.378v2.83h-6.072v3.974h5.15v2.738ZM54.89 42.778h-4.048v13.99h-3.317v-13.99h-3.98v-2.83H54.89v2.83ZM68 49.872c0 2.257-.521 4.009-1.563 5.256C65.403 56.376 63.964 57 62.12 57c-1.837 0-3.28-.616-4.33-1.849-1.049-1.24-1.581-2.973-1.596-5.198v-2.877c0-2.31.52-4.113 1.563-5.407 1.042-1.301 2.489-1.952 4.34-1.952 1.822 0 3.257.639 4.306 1.918 1.05 1.27 1.582 3.057 1.597 5.36v2.877Zm-3.317-2.82c0-1.516-.21-2.645-.63-3.384-.42-.74-1.072-1.11-1.956-1.11-.877 0-1.525.359-1.945 1.075-.42.709-.637 1.79-.652 3.247v2.992c0 1.47.213 2.557.64 3.258.428.693 1.087 1.04 1.98 1.04.861 0 1.502-.34 1.922-1.017.42-.686.634-1.745.641-3.177v-2.923Z" fill="#fff"/></svg>