<svg width="88" height="88" fill="none" xmlns="http://www.w3.org/2000/svg"><path fill-rule="evenodd" clip-rule="evenodd" d="M44 86.306c23.365 0 42.306-18.941 42.306-42.306S67.365 1.694 44 1.694 1.694 20.635 1.694 44 20.635 86.306 44 86.306ZM44 88c24.3 0 44-19.7 44-44S68.3 0 44 0 0 19.7 0 44s19.7 44 44 44Z" fill="#fff"/><path fill-rule="evenodd" clip-rule="evenodd" d="M44 80.914c20.387 0 36.914-16.527 36.914-36.914S64.387 7.086 44 7.086 7.086 23.613 7.086 44 23.613 80.914 44 80.914ZM44 82c20.987 0 38-17.013 38-38S64.987 6 44 6 6 23.013 6 44s17.013 38 38 38Z" fill="#fff"/><g clip-path="url(#a)" fill="#fff"><path d="M30.26 63.79h7.51v-2.823h-4.698v-4.352h3.433v-2.818h-3.433v-4.359h4.698v-2.824h-7.51v17.177ZM42.943 46.4a4.035 4.035 0 0 0-2.94 1.218c-.815.811-1.225 1.803-1.225 2.955v9.254c0 1.14.41 2.13 1.212 2.943.803.812 1.8 1.224 2.953 1.224 1.137 0 2.12-.406 2.935-1.212.815-.806 1.225-1.797 1.225-2.955v-6.03h-4.318v2.824h1.418v3.188c0 .37-.13.68-.387.937a1.282 1.282 0 0 1-.949.388c-.37 0-.674-.125-.931-.388a1.27 1.27 0 0 1-.387-.937V50.53c0-.376.129-.68.386-.943.258-.263.563-.388.932-.388.375 0 .686.125.95.394.263.262.392.573.392.943v2.113h2.905v-2.065c0-1.147-.404-2.138-1.206-2.95-.82-.823-1.81-1.235-2.965-1.235ZM50.987 46.614 48.08 63.791H51l.62-3.881h2.426l.603 3.88h2.935L54.72 46.616h-3.732Zm1.06 10.538.791-5.564.791 5.564h-1.582ZM65.188 46.614v10.562l-3.134-10.562H58.96v17.177h2.813V53.683l3.268 10.108H68V46.615h-2.812Z"/><path d="M54.59 19.618c-6.983 3.415-11.617 1.361-18.243 4.645C28.116 28.34 26.24 43.098 26.03 46.304l-2.097 12.759-1.992-12.448H19l3.052 17.176h3.732l2.466-13.612.147-.818c.328-1.415 1.33-4.28 4.189-5.433l.088-.035.047-.018c9.145-3.559 15.524-.747 21.424-11.547C57.162 26.806 57.83 18 57.83 18s-.897.472-3.24 1.618ZM43.969 31.409c-2.408.895-7.007 1.666-11.518 6.788-2.05 2.328-5.624 11.307-5.624 11.307 1.992-7.993 4.194-12.298 7.422-15.014 4.16-3.493 8.126-3.451 9.86-4.054 2.46-.86 3.287-1.726 3.287-1.726s-.668 1.672-3.427 2.699Z"/></g><defs><clipPath id="a"><path fill="#fff" transform="translate(19 18)" d="M0 0h49v46H0z"/></clipPath></defs></svg>