<svg width="80" height="80" fill="none" xmlns="http://www.w3.org/2000/svg"><circle cx="40" cy="40" r="39" stroke="#136470" stroke-width="2"/><g clip-path="url(#a)"><path d="m56.627 34.254-.335-.004c-4.672 0-8.875 2.611-11.013 6.701A10.481 10.481 0 0 0 40.96 40c-2.508 0-4.867.894-6.734 2.451-.036-1.646-.25-3.286-.46-4.742-.178-1.245-.35-2.454-.362-3.46l4.846.001c.767 0 1.49-.3 2.032-.842l3.833-3.834c1.096-1.095 1.104-2.853.058-3.979a2.863 2.863 0 0 0-.794-3.981l-2.327-1.55a6.801 6.801 0 0 0-3.785-1.147 10.483 10.483 0 0 0-7.462 3.091c-3.671 3.671-6.56 7.875-8.59 12.496-2.444 5.566-3.683 9.673-3.683 12.204 0 1.45-.125 2.629-.373 3.503-.53 1.867.304 3.859 2.027 4.843a45.833 45.833 0 0 0 22.701 6.029h1.386c4.928 0 9.796-.79 14.47-2.348l.672-.225A6.698 6.698 0 0 0 63 52.147v-11.18c0-3.609-2.859-6.62-6.373-6.713Zm4.456 17.893a4.785 4.785 0 0 1-3.277 4.546l-.671.224a43.775 43.775 0 0 1-13.863 2.25h-1.386a43.908 43.908 0 0 1-21.75-5.777c-.957-.546-1.423-1.639-1.134-2.656.296-1.043.446-2.398.446-4.026 0-2.233 1.218-6.186 3.523-11.433 1.931-4.402 4.686-8.41 8.188-11.912a8.579 8.579 0 0 1 6.107-2.53c.972 0 1.914.286 2.722.825l2.327 1.55c.24.16.394.417.422.704a.954.954 0 0 1-.275.772l-3.062 3.06a1.073 1.073 0 0 1-1.82-.587 1.063 1.063 0 0 1 .3-.932l.881-.88a.958.958 0 1 0-1.355-1.356l-.88.881a2.96 2.96 0 0 0-.838 2.595 2.96 2.96 0 0 0 1.615 2.196 2.99 2.99 0 0 0 3.453-.56l2.096-2.097a.947.947 0 0 1-.093 1.215l-3.833 3.834a.965.965 0 0 1-.678.28h-4.474c.06-.1.117-.202.196-.28a.958.958 0 1 0-1.355-1.355c-1.568 1.567-1.187 4.217-.746 7.284.228 1.593.465 3.24.465 4.893 0 3.947-2.988 4.788-3.115 4.822a.958.958 0 0 0 .472 1.857c1.147-.287 3.028-1.388 3.973-3.647.013-.017.034-.023.046-.042a8.6 8.6 0 0 1 7.249-3.948 8.57 8.57 0 0 1 6.07 2.498.958.958 0 1 0 1.35-1.36 10.61 10.61 0 0 0-1.432-1.168c1.801-3.49 5.373-5.72 9.345-5.72l.283.003c2.486.066 4.508 2.218 4.508 4.797v11.18Z" fill="#136470"/></g><defs><clipPath id="a"><path fill="#fff" transform="translate(17 17)" d="M0 0h46v46H0z"/></clipPath></defs></svg>