<svg width="80" height="80" fill="none" xmlns="http://www.w3.org/2000/svg"><g clip-path="url(#a)"><path fill-rule="evenodd" clip-rule="evenodd" d="M41.204 59.753a31.95 31.95 0 0 0 3.02-2.014c.588.17 1.656.449 2.755.557-1.378 1.194-2.941 2.294-4.675 3.317-.697.403-1.425.806-2.183 1.194a41.21 41.21 0 0 1-2.369 1.1l-.201.093h-.45l-.2-.093c-9.259-3.983-14.337-9.826-17.17-16.661-2.818-6.742-3.39-14.414-3.7-22.195L16 24.276 37.319 16l21.318 8.276-.031.775c-.046 1.008-.077 1.984-.124 2.914a76.18 76.18 0 0 1-.186 2.898 132.36 132.36 0 0 1-.325 3.565 13.072 13.072 0 0 0-1.796-1.41c-.077-.047-.139-.093-.216-.14l.185-2.17c.078-.991.124-1.937.186-2.851.031-.729.078-1.426.093-2.108l-19.105-7.424-19.104 7.408c.31 7.316.913 14.46 3.499 20.676 2.585 6.246 7.214 11.593 15.605 15.313a33.61 33.61 0 0 0 1.827-.868c.712-.341 1.394-.713 2.06-1.1ZM53.636 33.53c-.046-.217-.093-.418-.123-.635-.217-1.21-.326-2.387-.31-3.332v-.032c0-.387.015-.681-.403-1.1-.34-.34-.99-.589-1.625-.682-.635-.093-1.332-.062-1.765.17-.496.264-.588.543-.697.9 0 .015-.015.03-.015.046a17.69 17.69 0 0 1-1.3 3.084 6.155 6.155 0 0 1-.31.543c-1.301.155-2.586.527-3.778 1.116-.124.062-.232.108-.356.17a17.703 17.703 0 0 1-1.533-1.038 15.84 15.84 0 0 1-1.718-1.457l-.016-.016c-.279-.279-.48-.48-1.068-.465-.48.016-1.115.31-1.626.698-.51.387-.96.914-1.099 1.38-.155.557-.015.805.17 1.146l.016.047c.372.666.759 1.503 1.1 2.402.278.775.526 1.612.711 2.418a3.517 3.517 0 0 0-.17.34 11.82 11.82 0 0 0-1.037 3.349c-.062.03-.14.077-.201.108a18.71 18.71 0 0 1-3.236 1.364l-.031.016c-.387.108-.666.2-.945.712-.232.434-.278 1.163-.17 1.83.093.65.356 1.332.712 1.673.418.419.728.419 1.115.403h.03c.992-.015 2.215.093 3.453.326.294.712.65 1.395 1.069 2.06.232.342.48.683.743 1.024-.17.434-.356.852-.558 1.24-.278.573-.572 1.1-.851 1.534l-.016.016c-.216.325-.371.573-.232 1.147.109.465.542 1.023 1.022 1.441.48.418 1.1.744 1.58.79.587.047.804-.155 1.098-.418l.016-.016c.387-.356.882-.728 1.44-1.116.48-.34 1.006-.666 1.563-.976 1.084.419 2.214.667 3.344.76.573 1.069 1.038 2.154 1.316 3.068l.016.031c.108.372.201.651.712.915.433.217 1.13.248 1.765.155.635-.109 1.285-.357 1.625-.698.388-.387.403-.666.388-1.023v-.108c-.016-.961.062-2.139.278-3.348l.016-.108c.619-.295 1.223-.651 1.796-1.054a12.97 12.97 0 0 0 1.734-1.488c.464-.48.882-.992 1.254-1.535.294-.433.572-.883.805-1.348a17.8 17.8 0 0 1 2.662.108h.047c.387.047.681.093 1.146-.263.371-.294.696-.914.867-1.534.17-.62.216-1.318.046-1.767-.201-.543-.48-.667-.836-.822l-.03-.015a16.865 16.865 0 0 1-2.57-1.426c0-.248-.016-.48-.032-.713-.015-.155-.03-.31-.046-.45a17.32 17.32 0 0 1 1.563-1.13c.681-.45 1.363-.822 1.936-1.101.015 0 .03-.016.046-.016.356-.155.62-.279.805-.837.155-.465.093-1.162-.093-1.767-.186-.62-.526-1.224-.913-1.519-.465-.356-.759-.294-1.146-.232h-.03c-.744.124-1.657.186-2.633.186-.82 0-1.656-.062-2.477-.17-.093-.093-.186-.202-.294-.31-.14-.14-.263-.28-.387-.388a11.395 11.395 0 0 0-1.734-1.395 14.57 14.57 0 0 0-1.595-.868Zm.774 19.28c.511-.371 1.007-.79 1.456-1.255a9.441 9.441 0 0 0 1.053-1.302l.03-.046c-.495.077-.99.186-1.44.325a.958.958 0 0 1-1.176-.65.96.96 0 0 1 .65-1.178c1.1-.31 2.323-.496 3.515-.59a18.844 18.844 0 0 1 3.545.078c.046-.108.093-.248.14-.403.046-.155.077-.31.092-.418a18.876 18.876 0 0 1-3.08-1.767c-.976-.682-1.936-1.473-2.71-2.31a.953.953 0 1 1 1.393-1.302c.217.233.45.466.697.683a10.76 10.76 0 0 0-.557-1.984 10.023 10.023 0 0 0-1.13-2.077c-.078-.124-.186-.248-.295-.388-.108-.124-.2-.263-.31-.387-.108-.14-.216-.248-.309-.341-.093-.109-.217-.217-.325-.341a11.567 11.567 0 0 0-1.177-.977.96.96 0 0 1-.572.992.938.938 0 0 1-1.239-.511c-.449-1.054-.774-2.247-.99-3.425a19.964 19.964 0 0 1-.341-3.534c-.109-.031-.264-.062-.419-.093a2.432 2.432 0 0 0-.418-.047 19.5 19.5 0 0 1-1.393 3.27 17.252 17.252 0 0 1-1.966 2.961.937.937 0 0 1-1.331.108.954.954 0 0 1-.233-1.146c-.48.155-.944.325-1.393.558a10.153 10.153 0 0 0-2.88 2.092 10.527 10.527 0 0 0-1.857 2.65 8.656 8.656 0 0 0-.403.977c.077-.062.155-.124.217-.186a.937.937 0 0 1 1.331.108.94.94 0 0 1-.108 1.333c-.914.775-1.997 1.472-3.097 2.061-1.192.636-2.415 1.147-3.437 1.457 0 .124.016.295.047.48.03.187.062.357.108.481 1.084 0 2.4.109 3.716.357 1.238.232 2.477.573 3.576 1.038.48.202.712.76.496 1.24a.93.93 0 0 1-1.239.496c-.263-.108-.526-.217-.805-.31.077.14.155.264.248.388a9.904 9.904 0 0 0 1.47 1.766 10.017 10.017 0 0 0 2.957 1.984c.573.248 1.162.45 1.765.59-.139-.171-.263-.342-.402-.497a.952.952 0 0 1 .093-1.333.95.95 0 0 1 1.331.093c.743.853 1.425 1.891 1.997 2.96.62 1.132 1.1 2.279 1.425 3.255.108 0 .263-.015.433-.046.17-.031.31-.062.418-.093-.015-1.023.093-2.278.325-3.55.217-1.177.527-2.37.96-3.425a.95.95 0 0 1 1.239-.511c.48.201.712.76.51 1.24-.108.17-.154.279-.2.403Zm-12.184 1.954a11.77 11.77 0 0 1-1.594-1.178l-.28.604a16.468 16.468 0 0 1-.866 1.581c.077.078.186.186.31.295.123.108.247.201.34.263.434-.372.945-.76 1.47-1.131.202-.17.419-.31.62-.434ZM59.071 38.55c.34.015.68.03 1.021.03.991 0 1.951-.061 2.772-.185.046.093.092.248.139.403.046.155.093.31.108.418-.634.31-1.347.698-2.043 1.163-.325.201-.635.434-.96.666a11.701 11.701 0 0 0-.356-1.038 9.625 9.625 0 0 0-.681-1.457Zm-19.802-1.767c.202-.233.403-.465.62-.697a13.15 13.15 0 0 1 1.3-1.178 19.182 19.182 0 0 1-2.71-2.14c-.092.063-.216.14-.355.249a3.298 3.298 0 0 0-.326.279c.403.728.79 1.596 1.13 2.542.14.31.248.62.341.945Z" fill="#136470"/></g><circle cx="40" cy="40" r="39" stroke="#136470" stroke-width="2"/><defs><clipPath id="a"><path fill="#fff" transform="translate(16 16)" d="M0 0h49v48H0z"/></clipPath></defs></svg>