<svg width="80" height="80" fill="none" xmlns="http://www.w3.org/2000/svg"><circle cx="40" cy="40" r="39" stroke="#136470" stroke-width="2"/><path d="M57.434 40.122c-1.093-3.965-5.857-10.19-5.265-21.095a.98.98 0 0 0-.263-.723.957.957 0 0 0-.699-.304H28.97a.957.957 0 0 0-.7.304.98.98 0 0 0-.261.723c.588 10.855-4.162 17.143-5.273 21.087-2.01 7.109 1.269 16.291 5.862 22.3a.959.959 0 0 0 .762.378h21.46a.96.96 0 0 0 .76-.378c4.373-5.718 7.797-15.276 5.855-22.292Zm-30.011-6.136c1.805-4.624 2.66-9.342 2.547-14.038h20.236c-.113 4.694.742 9.411 2.546 14.036.077.196.157.393.24.593-3.961 1.898-8.403 2.898-12.904 2.898-4.501 0-8.943-1-12.904-2.898.082-.198.162-.394.239-.591Zm11.702 26.858h-9.29c-4.958-6.705-6.438-14.313-5.49-19.184 5.214 2.025 10.153 6.387 14.78 9.931v9.253Zm-14.26-21.067c.325-.908.73-1.753 1.18-2.695.115-.238.23-.481.348-.73 4.21 2.011 8.922 3.07 13.695 3.07s9.486-1.059 13.695-3.07c.117.248.232.49.346.727.452.944.856 1.79 1.177 2.7-5.503 2.094-10.688 6.62-15.218 10.107-4.55-3.5-9.718-8.015-15.222-10.11ZM50.34 60.844h-9.288v-9.253c4.66-3.57 9.568-7.903 14.764-9.925 1.145 6.154-1.84 14.21-5.476 19.178ZM64.15 24.902h-5.359l1.987-2.01a.884.884 0 0 0 0-1.24.86.86 0 0 0-1.225 0l-3.466 3.506a.884.884 0 0 0 0 1.24l3.465 3.505a.86.86 0 0 0 1.226 0 .884.884 0 0 0 0-1.24l-1.987-2.009h5.36a.871.871 0 0 0 .866-.876.871.871 0 0 0-.866-.876ZM23.923 25.576l-3.851-3.895a.955.955 0 0 0-1.362 0 .982.982 0 0 0 0 1.377l2.208 2.233h-5.955a.968.968 0 0 0-.963.974c0 .537.431.973.963.973h5.955l-2.208 2.233a.982.982 0 0 0 0 1.377c.376.38.986.38 1.362 0l3.85-3.895a.982.982 0 0 0 0-1.377Z" fill="#136470"/></svg>