<svg width="80" height="80" fill="none" xmlns="http://www.w3.org/2000/svg"><circle cx="40" cy="40" r="39" stroke="#136470" stroke-width="2"/><path d="m55.61 38.834-.043.088.044.09 2.974 6.016-3.263 3.3-.033.033-.015.045-2.143 6.504a4.041 4.041 0 0 1-3.835 2.796c-1.51 0-2.908-.144-4.2-.385l-.236-.044v5.67H26.547V49.085l-.057-.058a18.742 18.742 0 0 1-5.29-13.1c0-10.26 8.199-18.617 18.313-18.726v.013h.199c5.76.034 11.087 2.726 14.328 6.701 3.238 3.971 4.392 9.212 1.84 14.375l-.27.544ZM39.535 19.516c-.642.004-1.289.046-1.936.13v-.004l-.202.03c-7.863 1.141-13.922 7.997-13.922 16.256 0 3.939 1.31 6.939 2.64 8.984a16.542 16.542 0 0 0 2.49 2.986l.107.102.083.078.026.025v12.54h13.767V56.698l-.14-.045c-3.547-1.133-6.082-2.927-7.723-4.09l-.01-.008c-.428-.304-.82-.581-1.113-.76l1.063-2.039c.383.224.818.532 1.364.919l.115-.164-.115.163.003.003c2.48 1.758 6.663 4.725 13.265 4.725.764 0 1.438-.492 1.678-1.222l2.329-7.065 2.414-2.442.1-.1-.063-.129-2.73-5.522.823-1.664c2.197-4.443 1.054-8.906-1.851-12.236-2.9-3.326-7.566-5.535-12.462-5.506Z" fill="#136470" stroke="#fff" stroke-width=".4"/><path d="m39.55 32.032.143.148.144-.148c.884-.91 2.322-1.832 4.535-1.832 1.64 0 3.139.67 4.222 1.888l.149-.133-.15.133c1.026 1.152 1.594 2.694 1.594 4.344 0 2.218-1.06 4.037-2.822 5.901-1.233 1.306-2.793 2.617-4.55 4.094-.76.639-1.558 1.31-2.383 2.024l.131.151-.13-.151-.74.64-.739-.64-.13.151.13-.151a200.267 200.267 0 0 0-2.385-2.026c-1.756-1.476-3.315-2.786-4.548-4.091-1.761-1.865-2.821-3.683-2.821-5.902 0-1.65.568-3.192 1.593-4.344a5.574 5.574 0 0 1 4.222-1.888c2.213 0 3.65.922 4.535 1.832Zm.013 13.92.13.112.13-.111c.563-.482 1.104-.938 1.62-1.374 1.717-1.449 3.16-2.667 4.239-3.792 1.404-1.464 2.231-2.81 2.231-4.355 0-2.215-1.506-3.928-3.541-3.928-2.737 0-3.6 2.09-3.622 2.145l-1.095 2.802-1.015-2.792-.004-.01c-.117-.273-1.017-2.145-3.621-2.145-2.035 0-3.542 1.713-3.542 3.928 0 1.544.828 2.89 2.232 4.355 1.08 1.126 2.524 2.345 4.243 3.796.515.435 1.054.89 1.615 1.37Z" fill="#136470" stroke="#fff" stroke-width=".4"/></svg>