<svg width="80" height="80" fill="none" xmlns="http://www.w3.org/2000/svg"><circle cx="40" cy="40" r="39" stroke="#136470" stroke-width="2"/><path d="M53.56 27.929c-1.469-6.23-4.762-10.048-9.549-10.97-.103-.02-.299-.036-.553-.05a35.867 35.867 0 0 0-.96-.032c-.75-.018-1.687-.027-2.624-.027-.936 0-1.874.009-2.623.026-.374.01-.702.02-.96.034-.254.013-.45.029-.553.049-2.296.442-4.264 1.554-5.85 3.301l-.094.105.099.1 1.089 1.112.11.114.108-.118c1.317-1.45 2.952-2.373 4.86-2.742.15-.024.655-.045 1.358-.058.699-.014 1.577-.02 2.456-.02.878 0 1.757.006 2.455.02.703.013 1.208.033 1.358.058 4.059.784 6.8 3.972 8.116 9.555l.146-.034-.146.034c.977 4.141 1.285 8.328 1.54 12.623l.008.15.15-.01 1.509-.1.148-.01-.008-.148c-.249-4.197-.576-8.666-1.59-12.962Z" fill="#136470" stroke="#136470" stroke-width=".3"/><path d="m59.21 63.142-.204.008h-7.5c-3.535-.206-6.306-3.11-6.306-6.615v-5.97c-1.386.94-3.107 1.512-5.292 1.512-2.138 0-3.87-.539-5.291-1.439v5.897c0 3.505-2.771 6.41-6.306 6.614H21a.15.15 0 0 1-.149-.17l.005-.026a67.762 67.762 0 0 1 .206-.622l.006-.019c.129-.378.302-.89.482-1.438.368-1.123.754-2.384.839-2.999l.012-.083c.04-.29.078-.56.118-.79.536-3.081.946-6.205 1.22-9.286.15-1.69.258-3.421.362-5.102l.008-.132c.199-3.255.407-6.63.93-9.923l.022-.148.148.023 1.537.24.149.022-.024.149c-.508 3.2-.712 6.518-.91 9.735v.014a192.204 192.204 0 0 1-.373 5.283l-.15-.013.15.013c-.28 3.13-.696 6.306-1.241 9.437-.035.204-.069.443-.106.707l-.014.103-.149-.02m35.131 5.038-3.422-4.956m3.422 4.956-.068-.192.068.192Zm-35.13-5.039.148.02c-.152 1.108-.354 1.884-.748 3.218l4.726-.026c2.556-.15 4.555-2.252 4.555-4.78v-7.438c-2.688-2.857-3.86-7.254-4.804-10.795l-.001-.004a97.865 97.865 0 0 0-.6-2.188.917.917 0 0 1 .592-1.124c.046-.016 2.31-.79 4.83-2.003 1.262-.607 2.584-1.323 3.724-2.106 1.143-.785 2.09-1.63 2.612-2.493.731-1.205 1.742-1.5 2.46-1.532h.002l.133-.002c1.013 0 2.12.486 3.207 1.205 1.092.72 2.183 1.689 3.168 2.68a43.2 43.2 0 0 1 3.852 4.502.908.908 0 0 1 .131.83c-.331.99-.627 2.083-.942 3.245l-.016.06c-.87 3.223-1.88 6.934-4.053 9.51v7.653c0 2.529 2 4.63 4.556 4.781l4.836.069c-.47-1.038-.66-2.103-.808-3.179m-31.56-.103c-.153 1.108-.354 1.88-.757 3.239l.877-4.054c-.035.207-.07.449-.106.712l-.015.103Zm31.56.103.148-.02m-.148.02.148-.02m-.148.02a7.263 7.263 0 0 0-.085-.464l-.021-.102a9.869 9.869 0 0 1-.065-.326l-.026-.148.149-.026 1.532-.26.147-.024.026.146a42.542 42.542 0 0 1 .13.872v.001c.084.612.508 1.871.919 2.995a75.989 75.989 0 0 0 .658 1.73l-.128.045-.014.005c-.384-.975-1.442-3.724-1.584-4.754l-.011-.083c-.032-.23-.062-.445-.093-.637l-.008-.046a12.472 12.472 0 0 0-.017-.102l-1.384.235-.148.025.025.148h.003c.01.054.023.111.035.171.04.186.082.393.108.579M26.723 32.82l-.023.148.023-.148Zm0 0-.148-.023.148.023ZM58.838 63H58.8h.038Zm0 0 .005.012.013.032.004.009v.002L59 63m-.162 0 .106.15h.006l.005-.001a.142.142 0 0 0 .04-.011c.002 0 .003-.002.005-.003V63m0 0 .068-.028a.212.212 0 0 0-.044-.094.265.265 0 0 0-.024-.013V63Zm-37.955-.151H21c.016 0 .03.002.043.006l.002-.006Zm.105.15v.015h-.001a.681.681 0 0 1 .005-.015h-.004ZM34.467 50.54v-.18l.15.1-.15.08Zm22.147 10.846c.023.05.047.101.072.151l-.168-.002.096-.149Zm-15.91-32.055c.173-.287.347-.441.504-.527a.988.988 0 0 1 .447-.117c.517-.019 1.165.224 1.898.67.728.444 1.52 1.078 2.317 1.812 1.572 1.449 3.152 3.276 4.288 4.775-.291.915-.554 1.89-.829 2.908l-.012.045c-.762 2.822-1.53 5.66-2.906 7.796-.686 1.065-1.52 1.95-2.575 2.569-1.054.619-2.336.977-3.928.977-3.42 0-5.561-1.628-7.05-3.99-1.495-2.375-2.324-5.481-3.109-8.422l-.016-.06c-.121-.455-.24-.903-.36-1.338 1.174-.436 3.418-1.326 5.644-2.52 2.303-1.238 4.618-2.817 5.687-4.578ZM18.034 25.567a4.025 4.025 0 0 0 2.855 1.182c.134 0 .266-.013.395-.03a4.017 4.017 0 0 0 1.149 3.248l.911.911a.926.926 0 0 0 1.312 0l.912-.911a4.015 4.015 0 0 0 1.149-3.247c.128.016.26.029.394.029a4.025 4.025 0 0 0 2.855-1.181l.912-.912a.927.927 0 0 0 0-1.312l-.912-.911a4.015 4.015 0 0 0-3.25-1.15 4.017 4.017 0 0 0-1.149-3.25l-.911-.911a.927.927 0 0 0-1.312 0l-.912.912a4.015 4.015 0 0 0-1.148 3.25 4.017 4.017 0 0 0-3.25 1.149l-.912.911a.927.927 0 0 0 0 1.312l.912.912Zm7.534-1.823c.822-.822 2.264-.822 3.087 0l.255.256-.255.256c-.823.822-2.265.822-3.088 0L25.313 24l.255-.256Zm-1.824-4.398L24 19.09l.256.256c.412.412.639.959.639 1.543s-.227 1.131-.64 1.544l-.255.255-.256-.255a2.167 2.167 0 0 1-.639-1.544c0-.584.227-1.131.64-1.543Zm0 6.222.256-.256.256.256c.412.412.639.96.639 1.543 0 .584-.227 1.132-.64 1.544L24 28.91l-.256-.255a2.167 2.167 0 0 1-.639-1.544c0-.584.227-1.131.64-1.543Zm-4.399-1.824c.823-.822 2.265-.822 3.088 0l.255.256-.255.256c-.823.822-2.265.822-3.088 0L19.09 24l.255-.256Z" fill="#136470" stroke="#136470" stroke-width=".3"/><path d="m63.878 47.344-.911-.911a4.015 4.015 0 0 0-3.25-1.15 4.017 4.017 0 0 0-1.15-3.25l-.911-.911a.927.927 0 0 0-1.312 0l-.912.912a4.015 4.015 0 0 0-1.148 3.25 4.017 4.017 0 0 0-3.25 1.149l-.912.911a.927.927 0 0 0 0 1.312l.911.912a4.026 4.026 0 0 0 2.856 1.18c.134 0 .266-.012.394-.028a4.017 4.017 0 0 0 1.15 3.247l.911.911a.926.926 0 0 0 1.312 0l.912-.911a4.015 4.015 0 0 0 1.149-3.247c.128.016.26.029.394.029a4.024 4.024 0 0 0 2.856-1.181l.911-.912a.927.927 0 0 0 0-1.312Zm-8.446.912c-.822.822-2.264.822-3.087 0L52.09 48l.255-.255c.823-.823 2.265-.823 3.087 0l.256.255-.256.256Zm1.824 4.399L57 52.91l-.256-.255a2.167 2.167 0 0 1-.639-1.544c0-.584.227-1.131.64-1.543l.255-.256.256.256c.412.412.639.96.639 1.543 0 .584-.227 1.132-.64 1.544Zm0-6.222-.256.255-.256-.255a2.168 2.168 0 0 1-.639-1.544c0-.584.227-1.132.64-1.544L57 43.09l.256.255c.412.413.639.96.639 1.544 0 .584-.227 1.131-.64 1.544Zm4.399 1.823c-.823.822-2.265.822-3.087 0L58.312 48l.256-.255c.822-.823 2.264-.823 3.087 0l.255.255-.255.256Z" fill="#136470" stroke="#136470" stroke-width=".3"/></svg>