<svg width="80" height="80" fill="none" xmlns="http://www.w3.org/2000/svg"><circle cx="40" cy="40" r="39" stroke="#136470" stroke-width="2"/><g clip-path="url(#a)"><path d="M52.782 40.726H50.88a13.628 13.628 0 0 0 3.162-2.79c2.259-2.73 3.452-6.058 3.452-9.622v-3.226c0-.665-.538-1.203-1.203-1.203h-3.226c-3.101 0-6.064.935-8.55 2.643a13.935 13.935 0 0 0-8.168-2.643h-2.024c-.664 0-1.202.538-1.202 1.203v2.024c0 1.131.135 2.24.394 3.31a7.18 7.18 0 0 0-.492.449l-11.91 11.908A7.172 7.172 0 0 0 19 47.883c0 1.928.75 3.74 2.114 5.104a7.17 7.17 0 0 0 5.104 2.114 7.165 7.165 0 0 0 4.749-1.785 7.189 7.189 0 0 0 4.814 1.845h17.001c3.98 0 7.218-3.238 7.218-7.217 0-3.98-3.238-7.218-7.218-7.218Zm2.306-14.435v2.023c0 2.998-1.002 5.795-2.9 8.09-2.27 2.746-5.855 4.322-9.834 4.322l5.164-5.164a1.203 1.203 0 1 0-1.7-1.701l-5.472 5.47c-.08-2.997.9-5.935 2.826-8.317a12.666 12.666 0 0 1 9.893-4.723h2.023Zm-19.562 0h.821c2.22 0 4.384.64 6.226 1.823a15.342 15.342 0 0 0-1.513 1.694l-.76-.76a1.203 1.203 0 1 0-1.7 1.702l1.125 1.125a15.04 15.04 0 0 0-1.211 2.983 11.451 11.451 0 0 1-2.988-7.746v-.821Zm-1.148 6.627a13.901 13.901 0 0 0 3.613 4.776 15.124 15.124 0 0 0 .045 3.032H35.78c-.924 0-1.807.174-2.62.492l-3.541-3.542 4.758-4.758ZM22.815 51.286a4.78 4.78 0 0 1-1.41-3.403c0-1.285.501-2.494 1.41-3.402l5.104-5.104 3.125 3.125a7.203 7.203 0 0 0-1.58 8.931 4.777 4.777 0 0 1-3.246 1.262 4.78 4.78 0 0 1-3.403-1.41Zm8.154-3.342a4.817 4.817 0 0 1 4.812-4.812h7.217v9.623h-7.217a4.817 4.817 0 0 1-4.812-4.811Zm21.813 4.811h-7.378v-9.623h7.378a4.817 4.817 0 0 1 4.812 4.812 4.817 4.817 0 0 1-4.812 4.811Z" fill="#136470"/></g><defs><clipPath id="a"><path fill="#fff" transform="translate(19 19)" d="M0 0h41v41H0z"/></clipPath></defs></svg>