<svg width="80" height="80" fill="none" xmlns="http://www.w3.org/2000/svg"><circle cx="40" cy="40" r="39" stroke="#136470" stroke-width="2"/><path d="M29.078 48.107v5.25h-3.78a1.259 1.259 0 1 0 0 2.52h3.78v3.863a1.26 1.26 0 1 0 2.52 0v-3.863h3.779a1.259 1.259 0 1 0 0-2.52h-3.78v-5.245c.858-.11 1.694-.284 2.488-.564a13.989 13.989 0 0 1-1.967-2.014c-.576.118-1.17.18-1.78.18-4.862 0-8.819-3.956-8.819-8.817 0-4.862 3.957-8.819 8.819-8.819 5.024 0 8.818 4.286 8.818 8.819 0 1.459-.39 2.816-1.02 4.03a6.298 6.298 0 0 0 1.995 1.58c.956-1.662 1.545-3.56 1.545-5.61 0-5.844-4.806-11.338-11.338-11.338C24.086 25.559 19 30.644 19 36.897c0 5.82 4.425 10.574 10.078 11.21Z" fill="#136470"/><path d="M60.74 18h-7.558a1.259 1.259 0 1 0 0 2.52h4.517l-7.726 7.558c-1.94-1.552-4.366-2.52-7.038-2.52-1.319 0-2.567.27-3.746.687.723.602 1.379 1.28 1.967 2.014a8.819 8.819 0 0 1 1.78-.18c4.861 0 8.818 3.956 8.818 8.818 0 4.861-3.956 8.818-8.819 8.818-4.99 0-8.818-4.239-8.818-8.819 0-1.459.39-2.816 1.021-4.03a6.298 6.298 0 0 0-1.995-1.58c-.956 1.662-1.545 3.56-1.545 5.61 0 5.9 4.934 11.338 11.337 11.338 6.253 0 11.338-5.086 11.338-11.337 0-2.672-.967-5.098-2.519-7.038l7.727-7.558v4.517a1.259 1.259 0 1 0 2.519 0V19.26c0-.69-.565-1.26-1.26-1.26Z" fill="#136470"/></svg>