<svg width="80" height="80" fill="none" xmlns="http://www.w3.org/2000/svg"><circle cx="40" cy="40" r="39" stroke="#136470" stroke-width="2"/><path d="M28.516 38.11c0 4.5-.907 7.859-2.72 10.078-1.812 2.218-4.54 3.328-8.187 3.328-1.385 0-2.38-.084-2.984-.25v-3.078c.927.26 1.86.39 2.797.39 2.479 0 4.328-.667 5.547-2 1.218-1.333 1.885-3.427 2-6.281h-.188c-.614.937-1.36 1.614-2.234 2.031-.865.417-1.88.625-3.047.625-2.02 0-3.61-.63-4.766-1.89-1.156-1.26-1.734-2.99-1.734-5.188 0-2.385.667-4.281 2-5.688 1.344-1.416 3.172-2.125 5.484-2.125 1.625 0 3.042.396 4.25 1.188 1.209.792 2.141 1.943 2.797 3.453.657 1.5.985 3.302.985 5.406Zm-7.97-7c-1.27 0-2.244.416-2.921 1.25-.677.822-1.016 1.984-1.016 3.484 0 1.302.313 2.328.938 3.078.635.74 1.594 1.11 2.875 1.11 1.24 0 2.281-.37 3.125-1.11.844-.74 1.265-1.604 1.265-2.594 0-.927-.182-1.792-.546-2.594-.354-.812-.854-1.453-1.5-1.922-.646-.468-1.386-.703-2.22-.703ZM46.828 39.781c0 3.969-.64 6.917-1.922 8.844-1.27 1.927-3.218 2.89-5.843 2.89-2.542 0-4.47-.994-5.782-2.984-1.312-1.99-1.968-4.906-1.968-8.75 0-4.031.635-7 1.906-8.906C34.5 28.958 36.448 28 39.062 28c2.553 0 4.485 1 5.797 3 1.313 2 1.97 4.927 1.97 8.781Zm-11.797 0c0 3.115.318 5.339.953 6.672.646 1.333 1.672 2 3.078 2 1.407 0 2.433-.677 3.079-2.031.656-1.354.984-3.568.984-6.64 0-3.063-.328-5.277-.984-6.641-.646-1.375-1.672-2.063-3.078-2.063-1.407 0-2.433.672-3.079 2.016-.635 1.343-.953 3.573-.953 6.687ZM53.017 44.626c-1.185 0-2.155-.388-2.909-1.162-.739-.79-1.108-1.84-1.108-3.151 0-1.311.37-2.354 1.108-3.129.754-.79 1.724-1.184 2.909-1.184 1.185 0 2.147.395 2.886 1.184.739.775 1.108 1.818 1.108 3.129 0 1.31-.37 2.361-1.108 3.15-.739.775-1.7 1.163-2.886 1.163Zm9.627-8.447h2.747L54.356 51.82h-2.747L62.644 36.18Zm-9.627 6.614c.523 0 .931-.208 1.224-.625.307-.417.461-1.036.461-1.855 0-.82-.154-1.438-.461-1.855-.293-.417-.7-.626-1.224-.626-.508 0-.916.216-1.224.648-.307.418-.461 1.028-.461 1.833 0 .804.154 1.423.461 1.855.308.417.716.625 1.224.625ZM63.983 52c-.77 0-1.462-.171-2.078-.514a3.7 3.7 0 0 1-1.408-1.52c-.339-.655-.508-1.415-.508-2.279 0-.864.17-1.624.508-2.28.339-.655.808-1.154 1.408-1.496.616-.358 1.309-.537 2.078-.537 1.185 0 2.147.395 2.886 1.185.754.774 1.131 1.817 1.131 3.128 0 1.311-.377 2.361-1.131 3.151-.739.775-1.7 1.162-2.886 1.162Zm0-1.832c.523 0 .931-.209 1.224-.626.307-.432.461-1.05.461-1.855 0-.804-.154-1.415-.461-1.832a1.397 1.397 0 0 0-1.224-.648c-.508 0-.916.208-1.224.625-.307.417-.461 1.036-.461 1.855 0 .82.154 1.438.461 1.855.308.417.716.626 1.224.626Z" fill="#136470"/></svg>